<?xml version="1.0" encoding="utf-8"?>
<!-- Generator: Adobe Illustrator 24.1.0, SVG Export Plug-In . SVG Version: 6.00 Build 0)  -->
<svg version="1.1" id="Слой_1" xmlns="http://www.w3.org/2000/svg" xmlns:xlink="http://www.w3.org/1999/xlink" x="0px" y="0px"
	 viewBox="0 0 87.5 87.5" style="enable-background:new 0 0 87.5 87.5;" xml:space="preserve">
<style type="text/css">
	.st0{fill-rule:evenodd;clip-rule:evenodd;fill:#100F10;stroke:#201600;stroke-width:0.5669;stroke-miterlimit:22.9256;}
	.st1{fill:#E9ECEB;}
	.st2{fill:#E2E2E2;}
	.st3{fill-rule:evenodd;clip-rule:evenodd;fill:#FFFFFF;}
	.st4{fill:#FFFFFF;}
	.st5{fill:#FFFEFF;}
	.st6{fill:#ECECEC;}
	.st7{fill-rule:evenodd;clip-rule:evenodd;fill:#E61C21;}
	.st8{fill-rule:evenodd;clip-rule:evenodd;fill:#E2E2E2;}
	.st9{fill:#F3444E;}
	.st10{fill-rule:evenodd;clip-rule:evenodd;fill:#F3444E;}
	.st11{fill:#DC7D43;}
	.st12{fill:#201600;}
	.st13{fill:#D24A43;}
	.st14{fill:#B6B8BD;}
	.st15{fill-rule:evenodd;clip-rule:evenodd;fill:none;}
	.st16{fill-rule:evenodd;clip-rule:evenodd;fill:#B6B8BD;}
	.st17{fill-rule:evenodd;clip-rule:evenodd;fill:#FFFEFF;}
	.st18{fill:#E62A13;}
	.st19{fill-rule:evenodd;clip-rule:evenodd;fill:#E62A13;}
	.st20{fill:#F1444C;}
	.st21{fill-rule:evenodd;clip-rule:evenodd;fill:#FF0000;}
	.st22{fill-rule:evenodd;clip-rule:evenodd;fill:#5C768B;}
	.st23{fill:none;stroke:#D24A43;stroke-width:1.4173;stroke-miterlimit:22.9256;}
	.st24{fill-rule:evenodd;clip-rule:evenodd;fill:#D24A43;}
	.st25{fill-rule:evenodd;clip-rule:evenodd;fill:#E8444C;}
	.st26{stroke:#C6C6C6;}
	.st27{fill:#E61C21; }
	.st28{fill:none;stroke:#C6C6C6;stroke-width:1.0001;stroke-miterlimit:22.9256;}
	.st29{fill-rule:evenodd;clip-rule:evenodd;fill:#E41C22;}
	.st30{fill:none;stroke:#F1444C;stroke-miterlimit:10;}
	.st31{fill:none;stroke:#F1444C;stroke-width:2.1099;stroke-miterlimit:10;}
	.st32{fill:none;stroke:#F1444C;stroke-width:5.6693;stroke-miterlimit:10;}
	.st33{fill:none;stroke:#F1444C;stroke-width:2.8347;stroke-miterlimit:10;}
	.st34{fill:none;stroke:#F1444C;stroke-width:1.9345;stroke-miterlimit:10;}
	.st35{fill:none;stroke:#F1444C;stroke-width:1.3761;stroke-miterlimit:10;}
	.st36{fill:none;stroke:#F1444C;stroke-width:2.6283;stroke-miterlimit:10;}
	.st37{fill:none;stroke:#F1444C;stroke-width:3.536;stroke-miterlimit:10;}
	.st38{fill:none;stroke:#F1444C;stroke-width:3.3797;stroke-miterlimit:10;}
	.st39{fill:none;stroke:#F1444C;stroke-width:2.9335;stroke-miterlimit:10;}
	.st40{fill:none;stroke:#F1444C;stroke-width:1.275;stroke-miterlimit:10;}
	.st41{fill:none;stroke:#F1444C;stroke-width:1.0997;stroke-miterlimit:10;}
	.st42{fill:none;stroke:#F1444C;stroke-width:1.9238;stroke-miterlimit:10;}
</style>
<g>
	<g>
		<path class="st26" d="M43.8,87.5c-0.3,0-0.6-0.1-0.8-0.3L0.3,44.6C0.1,44.4,0,44.1,0,43.8c0-0.3,0.1-0.6,0.3-0.8L42.9,0.3
			c0.5-0.5,1.2-0.5,1.7,0l42.6,42.6c0.2,0.2,0.3,0.5,0.3,0.8c0,0.3-0.1,0.6-0.3,0.8L44.6,87.2C44.4,87.4,44.1,87.5,43.8,87.5z
			 M43.8,1c0,0-0.1,0-0.1,0.1L1.1,43.6c0,0-0.1,0.1-0.1,0.1c0,0,0,0.1,0.1,0.1l42.6,42.6c0.1,0.1,0.2,0.1,0.3,0l42.6-42.6
			c0,0,0.1-0.1,0.1-0.1c0,0,0-0.1-0.1-0.1L43.9,1.1C43.9,1,43.8,1,43.8,1z"/>
	</g>
	<g>
		<path class="st27" d="M42.4,33.6c1.4-0.7,0.6-1.8-0.6-1.4c-0.9,0.4-1.7,1-2.3,1.6c-0.9,1-1.4,2.2-1.6,3.6
			c-0.2,0.9,1.3,1.2,1.5,0.2c0.2-1.1,0.6-2.1,1.2-2.8C41.1,34.4,41.7,34,42.4,33.6L42.4,33.6z M46.5,47.9c-0.6,0.8,0.6,1.7,1.3,0.8
			c2.1-3.5,5.1-6.6,5.4-10.8c0.2-2.2-0.4-4.5-1.8-6.3c-1.4-1.7-3.5-3-6.7-3.2c-0.5,0-0.9,0-1.4,0c-0.5,0-0.9,0-1.4,0
			c-3.1,0.2-5.3,1.5-6.7,3.2c-1.4,1.8-2,4.1-1.8,6.3c0.3,4.2,3.3,7.4,5.4,10.8c0.7,0.9,1.9,0.2,1.3-0.8c-1.9-3.2-4.9-6.4-5.2-10.2
			c-0.1-1.9,0.3-3.8,1.5-5.3c1.1-1.4,2.9-2.5,5.6-2.7c0.4,0,0.8,0,1.3,0c0.4,0,0.8,0,1.3,0c2.7,0.2,4.5,1.3,5.6,2.7
			c1.2,1.5,1.6,3.4,1.5,5.3C51.4,41.5,48.5,44.7,46.5,47.9L46.5,47.9z M39.9,51c-0.5,0.1-0.8,0.6-0.7,1.1l0,0
			c0.1,0.5,0.6,0.8,1.1,0.7l6.3-1.3c0.5-0.1,0.8-0.6,0.7-1.1l0,0c-0.1-0.5-0.6-0.8-1.1-0.7L39.9,51L39.9,51z M40.2,54.1
			c-0.5,0.1-0.8,0.6-0.7,1.1l0,0c0.1,0.5,0.6,0.8,1.1,0.7l6.3-1.3c0.5-0.1,0.8-0.6,0.7-1.1l0,0c-0.1-0.5-0.6-0.8-1.1-0.7L40.2,54.1
			L40.2,54.1z M46.6,57.5c0.1-1-1.5-1-1.5,0c0,0.4-0.2,0.8-0.4,1l0,0c-0.3,0.3-0.6,0.4-1,0.4c-0.4,0-0.8-0.2-1-0.4
			c-0.3-0.3-0.4-0.6-0.4-1c0-0.9-1.5-0.8-1.5,0c0,0.8,0.3,1.6,0.9,2.1c0.5,0.5,1.3,0.9,2.1,0.9c0.8,0,1.6-0.3,2.1-0.9h0
			C46.3,59.1,46.6,58.3,46.6,57.5L46.6,57.5z"/>
	</g>
</g>
</svg>
