<?xml version="1.0" encoding="utf-8"?>
<!-- Generator: Adobe Illustrator 18.1.1, SVG Export Plug-In . SVG Version: 6.00 Build 0)  -->
<svg version="1.1" id="Слой_1" xmlns="http://www.w3.org/2000/svg" xmlns:xlink="http://www.w3.org/1999/xlink" x="0px" y="0px"
	 viewBox="0 0 87.5 87.5" style="enable-background:new 0 0 87.5 87.5;" xml:space="preserve">
<style type="text/css">
	.st0{fill-rule:evenodd;clip-rule:evenodd;fill:#100F10;stroke:#201600;stroke-width:0.5669;stroke-miterlimit:22.9256;}
	.st1{fill:#E9ECEB;}
	.st2{fill:#E2E2E2;}
	.st3{fill-rule:evenodd;clip-rule:evenodd;fill:#FFFFFF;}
	.st4{fill:#FFFFFF;}
	.st5{fill:#FFFEFF;}
	.st6{fill:#ECECEC;}
	.st7{fill-rule:evenodd;clip-rule:evenodd;fill:#E61C21;}
	.st8{fill-rule:evenodd;clip-rule:evenodd;fill:#E2E2E2;}
	.st9{fill:#F3444E;}
	.st10{fill-rule:evenodd;clip-rule:evenodd;fill:#F3444E;}
	.st11{fill:#DC7D43;}
	.st12{fill:#201600;}
	.st13{fill:#D24A43;}
	.st14{fill:#B6B8BD;}
	.st15{fill-rule:evenodd;clip-rule:evenodd;fill:#FFFEFF;}
	.st16{fill:#E62A13;}
	.st17{fill-rule:evenodd;clip-rule:evenodd;fill:#E62A13;}
	.st18{fill:#F1444C;}
	.st19{fill-rule:evenodd;clip-rule:evenodd;fill:#FF0000;}
	.st20{fill-rule:evenodd;clip-rule:evenodd;fill:#5C768B;}
	.st21{fill:none;stroke:#D24A43;stroke-width:1.4173;stroke-miterlimit:22.9256;}
	.st22{fill-rule:evenodd;clip-rule:evenodd;fill:#D24A43;}
	.st23{fill-rule:evenodd;clip-rule:evenodd;fill:#E8444C;}
	.st24{fill:none;stroke:#C6C6C6;stroke-width:1.0001;stroke-miterlimit:22.9256;}
	.st25{fill:#E61C21;}
	.st26{fill-rule:evenodd;clip-rule:evenodd;fill:#E41C22;}
	.st27{fill:none;stroke:#F1444C;stroke-miterlimit:10;}
	.st28{fill:none;stroke:#F1444C;stroke-width:2.1099;stroke-miterlimit:10;}
	.st29{fill:none;stroke:#F1444C;stroke-width:5.6693;stroke-miterlimit:10;}
	.st30{fill:none;stroke:#F1444C;stroke-width:2.8347;stroke-miterlimit:10;}
	.st31{fill:none;stroke:#F1444C;stroke-width:1.9345;stroke-miterlimit:10;}
	.st32{fill:none;stroke:#F1444C;stroke-width:1.3761;stroke-miterlimit:10;}
	.st33{fill:none;stroke:#F1444C;stroke-width:2.6283;stroke-miterlimit:10;}
	.st34{fill:none;stroke:#F1444C;stroke-width:3.536;stroke-miterlimit:10;}
	.st35{fill:none;stroke:#F1444C;stroke-width:3.3797;stroke-miterlimit:10;}
	.st36{fill:none;stroke:#F1444C;stroke-width:2.9335;stroke-miterlimit:10;}
	.st37{fill:none;stroke:#F1444C;stroke-width:1.275;stroke-miterlimit:10;}
	.st38{fill:none;stroke:#F1444C;stroke-width:1.0997;stroke-miterlimit:10;}
	.st39{fill:none;stroke:#F1444C;stroke-width:1.9238;stroke-miterlimit:10;}
</style>
<polygon class="st0" points="-1474,768.7 -1474,-1451.2 666.7,-1451.2 666.7,768.7 -1474,768.7 "/>
<g>
	<path class="st7" d="M39.7,33.9h2v4h-2V33.9L39.7,33.9z M45.7,33.9h2v4h-2V33.9L45.7,33.9z M42.2,44.1l-8.3-3.6l-0.5-0.2l0-0.5v-9
		v-0.8h0.8H53h0.8v0.8v9v0.5l-0.4,0.2l-8,3.6l-0.6-1.4l7.5-3.4v-7.7H35v7.7l7.8,3.4L42.2,44.1L42.2,44.1z M43.8,45.7
		c2.2,0,4.3,0.9,5.7,2.4c1.5,1.5,2.4,3.5,2.4,5.7c0,2.2-0.9,4.3-2.4,5.7C48,61,46,61.9,43.8,61.9c-2.2,0-4.3-0.9-5.7-2.4
		c-1.5-1.5-2.4-3.5-2.4-5.7c0-2.2,0.9-4.3,2.4-5.7C39.5,46.6,41.5,45.7,43.8,45.7L43.8,45.7z M40.2,53.8c0-1,0.4-1.9,1.1-2.5l0,0
		c0.7-0.7,1.6-1.1,2.5-1.1c0.9,0,0.9,1.5,0,1.5c-0.6,0-1.1,0.2-1.5,0.6l0,0c-0.4,0.4-0.6,0.9-0.6,1.5C41.6,54.6,40.2,54.5,40.2,53.8
		L40.2,53.8z M48.4,49.1c-1.2-1.2-2.8-1.9-4.7-1.9c-1.8,0-3.5,0.7-4.7,1.9c-1.2,1.2-1.9,2.8-1.9,4.7c0,1.8,0.7,3.5,1.9,4.7
		c1.2,1.2,2.8,1.9,4.7,1.9c1.8,0,3.5-0.7,4.7-1.9c1.2-1.2,1.9-2.8,1.9-4.7C50.4,52,49.6,50.3,48.4,49.1L48.4,49.1z"/>
	<path class="st24" d="M43.3,86.8L0.7,44.3c-0.3-0.3-0.3-0.7,0-1L43.3,0.7c0.3-0.3,0.7-0.3,1,0l42.6,42.6c0.3,0.3,0.3,0.7,0,1
		L44.3,86.8C44,87.1,43.5,87.1,43.3,86.8L43.3,86.8z"/>
</g>
</svg>
