<?xml version="1.0" encoding="UTF-8"?>
<!DOCTYPE svg PUBLIC "-//W3C//DTD SVG 1.1//EN" "http://www.w3.org/Graphics/SVG/1.1/DTD/svg11.dtd">
<!-- Creator: CorelDRAW X6 -->
<svg xmlns="http://www.w3.org/2000/svg" xml:space="preserve" width="119.392mm" height="178.328mm" version="1.1" style="shape-rendering:geometricPrecision; text-rendering:geometricPrecision; image-rendering:optimizeQuality; fill-rule:evenodd; clip-rule:evenodd"
viewBox="0 0 10683 15956"
 xmlns:xlink="http://www.w3.org/1999/xlink">
 <defs>
  <style type="text/css">
   <![CDATA[
    .fil1 {fill:#EAF0F3}
    .fil0 {fill:#F7F9FB}
    .fil2 {fill:white;fill-rule:nonzero}
    .fil3 {fill:#797D91;fill-rule:nonzero}
    .fil4 {fill:#A2A7B0;fill-rule:nonzero}
   ]]>
  </style>
    <clipPath id="id0">
     <path d="M1470 2994l5144 0 0 2068 -5144 0 0 -2068z"/>
    </clipPath>
    <clipPath id="id1">
     <path d="M4948 5076l5142 0 6 655 -5142 0 -6 -655z"/>
    </clipPath>
   <clipPath id="id2">
    <path d="M9615 2060c522,505 536,1338 31,1860 -506,521 -1338,535 -1860,30 -521,-505 -535,-1338 -30,-1859 505,-522 1338,-536 1859,-31z"/>
   </clipPath>
   <clipPath id="id3">
    <path d="M1636 11751c383,371 393,982 22,1365 -370,383 -981,393 -1364,22 -383,-371 -393,-982 -22,-1364 370,-383 981,-393 1364,-23z"/>
   </clipPath>
 </defs>
 <g id="Слой_x0020_1">
  <metadata id="CorelCorpID_0Corel-Layer"/>
  <rect class="fil0" x="582" width="10101" height="15956"/>
  <path class="fil1" d="M582 487c1034,1365 2241,2243 3236,2303 1492,91 2884,-1026 4483,-2790 -2573,0 -5146,0 -7719,0 0,190 0,297 0,487z"/>
  <path class="fil1" d="M10683 4557c-1637,1829 -4146,3359 -4604,5256 -405,2017 2782,3978 4604,6036l0 -11292z"/>
  <g id="_833547840">
   <g style="clip-path:url(#id0)">
    <image x="1470" y="2994" width="5144" height="2067" xlink:href="фон мобильная версия_Images\фон мобильная версия_ImgID1.png"/>
   </g>
  </g>
  <path class="fil2" d="M2121 4233l0 633 -545 0 0 -1745 745 0c186,0 327,21 424,64 97,43 173,108 230,196 57,87 85,186 85,295 0,167 -58,301 -174,403 -115,103 -269,154 -463,154l-302 0zm-8 -374l178 0c157,0 235,-59 235,-177 0,-111 -72,-166 -217,-166l-196 0 0 343zm1900 1033c-246,0 -446,-81 -601,-244 -154,-163 -232,-380 -232,-653 0,-260 75,-476 222,-646 148,-169 354,-254 616,-254 243,0 441,80 595,240 153,160 229,374 229,641 0,277 -77,499 -232,666 -154,167 -353,250 -597,250zm-2 -395c90,0 156,-40 196,-118 39,-79 59,-224 59,-434 0,-304 -82,-455 -245,-455 -177,0 -265,173 -265,520 0,324 85,487 255,487zm875 -138l498 -90c41,142 148,212 321,212 135,0 202,-35 202,-107 0,-37 -16,-67 -47,-87 -31,-21 -86,-40 -166,-55 -306,-59 -502,-136 -589,-230 -86,-94 -130,-206 -130,-333 0,-165 63,-302 187,-411 125,-109 304,-163 539,-163 355,0 589,142 703,428l-442 134c-46,-117 -140,-175 -280,-175 -117,0 -175,36 -175,108 0,33 13,58 39,76 26,18 77,34 153,51 209,43 357,81 445,115 88,33 161,91 219,174 59,82 88,179 88,291 0,177 -71,320 -214,430 -143,110 -331,165 -564,165 -425,0 -687,-178 -787,-533z"/>
  <g id="_833548608">
   <g style="clip-path:url(#id1)">
    <image x="4948" y="5076" width="5148" height="655" xlink:href="фон мобильная версия_Images\фон мобильная версия_ImgID2.png"/>
   </g>
  </g>
  <path class="fil2" d="M5610 5119l0 569 -162 0 0 -407 -106 407 -111 0 -109 -407 0 407 -131 0 0 -569 228 0 83 302 79 -302 229 0zm414 569l-32 -112 -155 0 -33 112 -142 0 176 -569 185 0 179 569 -178 0zm-155 -236l91 0 -46 -165 -45 165zm592 -197l0 433 -166 0 0 -433 -117 0 0 -136 401 0 0 136 -118 0zm596 297l0 136 -429 0 0 -569 429 0 0 131 -257 0 0 83 207 0 0 126 -207 0 0 93 257 0zm246 -70l0 206 -178 0 0 -569 243 0c61,0 107,7 139,21 31,14 56,35 75,64 18,28 27,60 27,96 0,54 -19,98 -56,132 -38,33 -88,50 -151,50l-99 0zm-3 -122l58 0c52,0 77,-20 77,-58 0,-36 -23,-54 -71,-54l-64 0 0 112zm544 268l0 60 -170 0 0 -569 170 0 0 228c0,30 -2,66 -5,108 21,-46 42,-86 62,-121l90 -154 0 -61 170 0 0 569 -170 0 0 -226c0,-32 1,-68 4,-108 -16,39 -37,79 -62,121l-89 153zm730 60l-31 -112 -155 0 -34 112 -141 0 176 -569 184 0 180 569 -179 0zm-154 -236l91 0 -46 -165 -45 165zm486 236l-140 0 180 -569 186 0 177 569 -173 0 -114 -405 -116 405zm972 0l0 -569 170 0 0 569 -170 0zm-537 0l0 -569 170 0 0 200 100 0c55,0 96,7 124,20 28,12 50,32 66,60 16,27 24,60 24,99 0,53 -17,98 -52,135 -34,37 -88,55 -162,55l-270 0zm170 -126l78 0c22,0 37,-5 46,-14 8,-10 12,-26 12,-49 0,-39 -17,-58 -52,-58l-84 0 0 121z"/>
  <g style="clip-path:url(#id2)">
   <image transform="matrix(0.454924 0.440385 -0.440385 0.454924 -176.343 -21362.6)" x="0" y="0" width="44191" height="53597" xlink:href="фон мобильная версия_Images\фон мобильная версия_ImgID3.png"/>
  </g>
  <g style="clip-path:url(#id3)">
   <image transform="matrix(0.333909 0.323237 -0.323237 0.333909 -5550.66 -5440.78)" x="0" y="0" width="44191" height="53597" xlink:href="фон мобильная версия_Images\фон мобильная версия_ImgID4.png"/>
  </g>
  <path class="fil3" d="M1957 9198l0 133 -77 0 0 -378 129 0c38,0 68,11 90,35 22,23 33,53 33,90 0,37 -11,66 -33,88 -22,21 -52,32 -91,32l-51 0zm0 -64l52 0c15,0 26,-5 34,-14 8,-10 12,-23 12,-41 0,-19 -4,-34 -12,-45 -8,-12 -19,-17 -33,-17l-53 0 0 117zm440 34l-119 0 0 100 141 0 0 63 -217 0 0 -378 217 0 0 64 -141 0 0 89 119 0 0 62zm195 9l-33 0 0 154 -77 0 0 -378 77 0 0 151 26 0 65 -151 94 0 -93 176 103 202 -91 0 -71 -154zm475 -224l0 378 -77 0 0 -314 -70 0 -6 134c-2,44 -7,79 -15,105 -7,26 -19,45 -34,57 -15,12 -36,18 -61,18l-19 0 0 -63 9 -1c16,-2 27,-12 34,-31 7,-19 12,-53 13,-101l5 -182 221 0zm265 301l-104 0 -20 77 -81 0 118 -378 70 0 119 378 -81 0 -21 -77zm-87 -64l70 0 -35 -135 -35 135zm343 -237l72 274 71 -274 100 0 0 378 -77 0 0 -102 7 -158 -75 260 -52 0 -76 -260 7 158 0 102 -77 0 0 -378 100 0zm589 378l-77 0 0 -162 -112 0 0 162 -77 0 0 -378 77 0 0 153 112 0 0 -153 77 0 0 378zm347 -155c0,51 -12,90 -37,119 -24,28 -57,42 -99,42 -43,0 -76,-14 -101,-42 -24,-28 -36,-67 -37,-117l0 -65c0,-52 13,-93 37,-122 24,-29 57,-44 100,-44 42,0 75,15 100,43 24,29 36,69 37,121l0 65zm-77 -64c0,-34 -5,-59 -15,-76 -9,-16 -25,-25 -45,-25 -20,0 -35,8 -45,24 -10,16 -15,41 -15,74l0 67c0,33 5,58 15,73 10,16 25,24 46,24 19,0 34,-8 44,-23 10,-16 15,-39 15,-72l0 -66zm269 88l-127 0 0 -61 127 0 0 61zm340 131l-76 0 0 -314 -112 0 0 314 -77 0 0 -378 265 0 0 378zm157 -133l0 133 -76 0 0 -378 129 0c37,0 67,11 89,35 23,23 34,53 34,90 0,37 -11,66 -33,88 -22,21 -53,32 -92,32l-51 0zm0 -64l53 0c14,0 26,-5 33,-14 8,-10 12,-23 12,-41 0,-19 -4,-34 -12,-45 -8,-12 -19,-17 -33,-17l-53 0 0 117zm512 42c0,51 -12,90 -36,119 -24,28 -57,42 -100,42 -42,0 -76,-14 -100,-42 -24,-28 -37,-67 -37,-117l0 -65c0,-52 12,-93 36,-122 24,-29 58,-44 101,-44 42,0 75,15 99,43 24,29 37,69 37,121l0 65zm-77 -64c0,-34 -5,-59 -14,-76 -10,-16 -25,-25 -45,-25 -21,0 -36,8 -45,24 -10,16 -15,41 -16,74l0 67c0,33 5,58 15,73 10,16 25,24 46,24 20,0 35,-8 45,-23 9,-16 14,-39 14,-72l0 -66zm336 -159l76 0 0 378 -76 0 0 -250 -112 250 -76 0 0 -378 76 0 0 251 112 -251zm308 104c0,-14 -4,-25 -12,-33 -7,-9 -18,-13 -31,-13 -12,0 -21,4 -29,12 -7,8 -11,19 -11,32l-76 0c0,-20 5,-39 15,-56 10,-16 24,-29 42,-38 18,-9 38,-13 59,-13 38,0 67,9 88,28 21,19 32,45 32,80 0,17 -5,33 -14,47 -8,15 -20,26 -36,34 18,7 31,18 40,33 10,15 14,33 14,55 0,34 -11,61 -34,81 -22,20 -52,30 -90,30 -23,0 -44,-4 -62,-13 -19,-9 -33,-22 -43,-38 -11,-16 -16,-36 -16,-59l77 0c0,13 4,24 12,34 8,9 19,13 32,13 14,0 26,-4 35,-13 8,-10 13,-21 13,-36 0,-19 -4,-33 -11,-42 -8,-8 -19,-13 -33,-13l-39 0 0 -61 39 0c26,-1 39,-17 39,-51zm155 274l0 -378 117 0c40,0 70,8 90,26 21,18 31,43 31,77 0,20 -4,36 -13,50 -8,14 -20,24 -34,30 17,5 30,15 39,30 9,14 14,32 14,54 0,37 -10,64 -31,83 -20,19 -49,28 -87,28l-126 0zm77 -164l0 101 49 0c13,0 24,-4 31,-13 7,-8 10,-20 10,-36 0,-34 -12,-51 -36,-52l-54 0zm0 -56l39 0c30,0 45,-16 45,-46 0,-18 -3,-30 -10,-37 -7,-8 -18,-11 -34,-11l-40 0 0 94zm507 65c0,51 -12,90 -36,119 -24,28 -57,42 -100,42 -42,0 -75,-14 -100,-42 -24,-28 -36,-67 -37,-117l0 -65c0,-52 12,-93 37,-122 24,-29 57,-44 100,-44 42,0 75,15 100,43 24,29 36,69 36,121l0 65zm-76 -64c0,-34 -5,-59 -15,-76 -9,-16 -25,-25 -45,-25 -20,0 -35,8 -45,24 -10,16 -15,41 -15,74l0 67c0,33 5,58 15,73 10,16 25,24 45,24 20,0 35,-8 45,-23 10,-16 15,-39 15,-72l0 -66zm445 313l-71 0 0 -94 -179 0 0 93 -72 0 -4 -156 25 0c11,-10 20,-27 26,-49 7,-23 11,-53 14,-90l10 -176 218 0 0 315 39 0 -6 157zm-219 -157l110 0 0 -251 -69 0 -6 104c-4,62 -16,111 -35,147zm534 -63c-2,44 -14,76 -37,98 -22,23 -54,34 -94,34 -43,0 -76,-14 -99,-43 -23,-28 -34,-68 -34,-120l0 -64c0,-52 12,-92 35,-120 24,-29 57,-43 99,-43 41,0 72,12 94,35 21,23 33,56 36,99l-76 0c-1,-27 -5,-45 -13,-55 -7,-10 -21,-15 -41,-15 -21,0 -35,7 -44,21 -8,15 -13,38 -13,71l0 72c0,37 4,63 12,77 9,14 23,21 44,21 20,0 34,-5 41,-14 8,-10 12,-28 13,-54l77 0zm303 -188l-93 0 0 314 -77 0 0 -314 -92 0 0 -64 262 0 0 64zm63 314l0 -378 117 0c40,0 70,8 90,26 21,18 31,43 31,77 0,20 -4,36 -13,50 -8,14 -20,24 -35,30 17,5 30,15 40,30 9,14 13,32 13,54 0,37 -10,64 -30,83 -20,19 -49,28 -88,28l-125 0zm76 -164l0 101 49 0c14,0 24,-4 32,-13 7,-8 10,-20 10,-36 0,-34 -12,-51 -37,-52l-54 0zm0 -56l40 0c30,0 45,-16 45,-46 0,-18 -3,-30 -10,-37 -7,-8 -18,-11 -34,-11l-41 0 0 94zm437 57l-119 0 0 100 141 0 0 63 -217 0 0 -378 216 0 0 64 -140 0 0 89 119 0 0 62zm350 163l-76 0 0 -162 -113 0 0 162 -76 0 0 -378 76 0 0 153 113 0 0 -153 76 0 0 378zm346 0l-76 0 0 -162 -113 0 0 162 -77 0 0 -378 77 0 0 153 113 0 0 -153 76 0 0 378zm265 -77l-104 0 -20 77 -81 0 118 -378 70 0 119 378 -81 0 -21 -77zm-87 -64l70 0 -35 -135 -35 135zm385 141l0 -136 -40 0 -56 136 -83 0 67 -164c-31,-21 -47,-54 -47,-97 0,-38 11,-67 32,-87 21,-20 51,-30 90,-30l113 0 0 378 -76 0zm-82 -255c0,21 4,36 11,45 8,10 19,14 35,14l36 0 0 -118 -38 0c-29,0 -44,19 -44,59zm-5087 740l-33 0 0 155 -77 0 0 -379 77 0 0 151 26 0 65 -151 93 0 -92 176 103 203 -91 0 -71 -155zm468 -1c0,51 -12,91 -36,119 -24,28 -58,42 -100,42 -43,0 -76,-14 -101,-42 -24,-28 -36,-67 -37,-117l0 -65c0,-52 13,-92 37,-122 24,-29 57,-43 100,-43 42,0 75,14 100,43 24,28 36,69 37,121l0 64zm-77 -63c0,-34 -5,-60 -15,-77 -9,-16 -24,-24 -45,-24 -20,0 -35,7 -45,24 -10,16 -15,40 -15,73l0 67c0,33 5,58 15,74 10,15 25,23 46,23 20,0 34,-8 44,-23 10,-15 15,-39 15,-71l0 -66zm250 -160l71 274 72 -274 100 0 0 379 -77 0 0 -103 7 -158 -76 261 -52 0 -76 -261 7 158 0 103 -76 0 0 -379 100 0zm588 379l-76 0 0 -315 -112 0 0 315 -77 0 0 -379 265 0 0 379zm261 -78l-104 0 -20 78 -81 0 118 -379 70 0 119 379 -81 0 -21 -78zm-87 -64l71 0 -36 -135 -35 135zm509 142l-76 0 0 -162 -113 0 0 162 -76 0 0 -379 76 0 0 153 113 0 0 -153 76 0 0 379zm266 -379l76 0 0 379 -76 0 0 -251 -112 251 -76 0 0 -379 76 0 0 251 112 -251zm297 379l0 -137 -40 0 -56 137 -83 0 68 -164c-32,-22 -47,-55 -47,-98 0,-38 10,-66 31,-87 21,-20 51,-30 90,-30l114 0 0 379 -77 0zm-81 -256c0,21 3,36 11,45 7,10 19,15 35,15l35 0 0 -119 -38 0c-29,0 -43,20 -43,59z"/>
  <path class="fil4" d="M2829 14402l0 110 -63 0 0 -312 106 0c30,0 55,10 73,29 19,19 28,44 28,74 0,31 -9,55 -27,73 -18,17 -44,26 -76,26l-41 0zm0 -52l43 0c12,0 21,-4 27,-12 7,-8 10,-19 10,-34 0,-16 -3,-28 -10,-37 -6,-9 -15,-14 -27,-14l-43 0 0 97zm311 98l-85 0 -17 64 -66 0 97 -312 57 0 98 312 -67 0 -17 -64zm-72 -53l59 0 -29 -111 -30 111zm326 -109c0,-11 -4,-20 -10,-27 -6,-7 -15,-11 -26,-11 -9,0 -17,4 -23,10 -6,7 -9,16 -9,27l-63 0c0,-17 4,-33 12,-46 9,-14 20,-24 35,-32 15,-7 31,-11 48,-11 31,0 55,8 73,24 17,15 26,37 26,65 0,14 -4,27 -11,39 -7,12 -17,21 -30,28 14,6 25,15 33,27 8,12 12,27 12,45 0,28 -10,51 -28,67 -19,16 -44,24 -75,24 -19,0 -36,-3 -51,-10 -15,-8 -27,-18 -35,-32 -9,-13 -13,-29 -13,-48l63 0c0,11 4,20 10,27 7,8 16,12 26,12 12,0 22,-4 29,-12 7,-7 11,-17 11,-29 0,-16 -3,-27 -10,-34 -6,-7 -15,-11 -26,-11l-32 0 0 -50 32 0c21,0 32,-14 32,-42zm190 116l0 110 -63 0 0 -312 106 0c31,0 56,10 74,29 18,19 27,44 27,74 0,31 -9,55 -27,73 -18,17 -43,26 -75,26l-42 0zm0 -52l43 0c12,0 21,-4 28,-12 7,-8 10,-19 10,-34 0,-16 -3,-28 -10,-37 -7,-9 -16,-14 -27,-14l-44 0 0 97zm312 98l-86 0 -16 64 -67 0 98 -312 57 0 98 312 -67 0 -17 -64zm-72 -53l58 0 -29 -111 -29 111zm375 -142l-112 0 0 59 37 0c32,0 57,9 76,27 18,18 28,42 28,72 0,29 -9,53 -28,72 -18,18 -42,28 -72,29l-104 0 0 -312 175 0 0 53zm-112 111l0 95 38 0c13,0 22,-4 29,-13 7,-10 11,-21 11,-36 0,-13 -4,-25 -10,-33 -7,-9 -17,-13 -29,-13l-39 0zm411 20c0,42 -10,74 -30,97 -19,23 -47,35 -82,35 -35,0 -62,-12 -82,-34 -20,-23 -30,-55 -30,-97l0 -53c0,-43 9,-76 29,-100 20,-24 48,-36 83,-36 34,0 62,12 82,35 20,24 30,57 30,100l0 53zm-63 -52c0,-28 -4,-49 -12,-63 -8,-14 -20,-21 -37,-21 -17,0 -29,7 -37,20 -8,13 -12,33 -13,60l0 56c0,27 4,47 13,60 8,13 20,19 37,19 17,0 29,-6 37,-19 8,-12 12,-32 12,-58l0 -54zm307 -79l-77 0 0 259 -63 0 0 -259 -76 0 0 -53 216 0 0 53zm142 132l-27 0 0 127 -63 0 0 -312 63 0 0 125 21 0 54 -125 76 0 -76 145 85 167 -75 0 -58 -127zm320 63l-86 0 -16 64 -67 0 97 -312 58 0 98 312 -67 0 -17 -64zm-72 -53l58 0 -29 -111 -29 111zm520 117l-63 0 0 -259 -93 0 0 259 -62 0 0 -312 218 0 0 312zm129 -110l0 110 -63 0 0 -312 106 0c30,0 55,10 73,29 19,19 28,44 28,74 0,31 -9,55 -27,73 -18,17 -44,26 -76,26l-41 0zm0 -52l43 0c12,0 21,-4 28,-12 6,-8 9,-19 9,-34 0,-16 -3,-28 -10,-37 -6,-9 -15,-14 -27,-14l-43 0 0 97zm420 34c0,42 -10,74 -29,97 -20,23 -48,35 -83,35 -34,0 -62,-12 -82,-34 -20,-23 -30,-55 -30,-97l0 -53c0,-43 10,-76 30,-100 19,-24 47,-36 82,-36 35,0 62,12 82,35 20,24 30,57 30,100l0 53zm-63 -52c0,-28 -4,-49 -12,-63 -8,-14 -20,-21 -37,-21 -17,0 -29,7 -37,20 -8,13 -12,33 -12,60l0 56c0,27 4,47 12,60 8,13 21,19 37,19 17,0 29,-6 37,-19 8,-12 12,-32 12,-58l0 -54zm276 -132l63 0 0 312 -63 0 0 -207 -92 207 -63 0 0 -312 63 0 0 207 92 -207zm253 86c0,-11 -3,-20 -9,-27 -7,-7 -15,-11 -26,-11 -10,0 -18,4 -24,10 -6,7 -9,16 -9,27l-63 0c0,-17 5,-33 13,-46 8,-14 20,-24 34,-32 15,-7 31,-11 49,-11 31,0 55,8 72,24 17,15 26,37 26,65 0,14 -4,27 -11,39 -7,12 -17,21 -29,28 14,6 25,15 33,27 7,12 11,27 11,45 0,28 -9,51 -28,67 -18,16 -43,24 -74,24 -19,0 -36,-3 -51,-10 -15,-8 -27,-18 -36,-32 -8,-13 -12,-29 -12,-48l63 0c0,11 3,20 10,27 6,8 15,12 26,12 12,0 21,-4 28,-12 8,-7 11,-17 11,-29 0,-16 -3,-27 -9,-34 -6,-7 -15,-11 -27,-11l-32 0 0 -50 32 0c22,0 32,-14 32,-42zm128 226l0 -312 96 0c32,0 57,7 74,22 17,14 25,36 25,63 0,16 -3,30 -10,41 -7,12 -17,20 -29,25 14,4 25,12 32,24 8,12 12,27 12,45 0,30 -9,53 -25,68 -17,16 -41,24 -72,24l-103 0zm63 -136l0 83 40 0c11,0 20,-3 25,-10 6,-7 9,-17 9,-30 0,-28 -10,-42 -30,-43l-44 0zm0 -46l32 0c25,0 37,-12 37,-38 0,-14 -3,-24 -8,-30 -6,-6 -15,-9 -28,-9l-33 0 0 77zm417 54c0,42 -10,74 -30,97 -19,23 -47,35 -82,35 -35,0 -62,-12 -82,-34 -20,-23 -30,-55 -31,-97l0 -53c0,-43 10,-76 30,-100 20,-24 47,-36 83,-36 34,0 62,12 82,35 20,24 30,57 30,100l0 53zm-63 -52c0,-28 -4,-49 -12,-63 -8,-14 -20,-21 -37,-21 -17,0 -29,7 -37,20 -8,13 -12,33 -13,60l0 56c0,27 4,47 12,60 9,13 21,19 38,19 17,0 29,-6 37,-19 8,-12 12,-32 12,-58l0 -54zm365 256l-57 0 0 -76 -148 0 0 76 -59 0 -3 -129 20 0c10,-8 17,-22 22,-40 5,-19 9,-43 11,-74l9 -145 179 0 0 259 32 0 -6 129zm-179 -129l90 0 0 -206 -56 0 -5 85c-4,52 -14,92 -29,121zm438 -51c-1,36 -11,62 -30,81 -18,18 -44,27 -77,27 -36,0 -62,-12 -81,-35 -19,-23 -28,-56 -28,-99l0 -52c0,-43 9,-76 29,-99 19,-24 46,-35 81,-35 33,0 59,9 77,28 17,19 27,46 30,82l-63 0c-1,-22 -4,-37 -10,-46 -7,-8 -18,-12 -34,-12 -17,0 -29,6 -36,18 -7,11 -11,31 -11,58l0 59c0,31 3,52 10,63 7,12 19,18 36,18 16,0 28,-4 34,-12 6,-8 10,-23 11,-44l62 0zm250 -155l-77 0 0 259 -63 0 0 -259 -76 0 0 -53 216 0 0 53zm51 259l0 -312 97 0c32,0 57,7 74,22 17,14 25,36 25,63 0,16 -3,30 -10,41 -7,12 -17,20 -29,25 14,4 25,12 32,24 8,12 11,27 11,45 0,30 -8,53 -24,68 -17,16 -41,24 -73,24l-103 0zm63 -136l0 83 40 0c12,0 20,-3 26,-10 6,-7 9,-17 9,-30 0,-28 -10,-42 -30,-43l-45 0zm0 -46l33 0c25,0 37,-12 37,-38 0,-14 -3,-24 -9,-30 -5,-6 -15,-9 -27,-9l-34 0 0 77zm418 54c0,42 -10,74 -30,97 -20,23 -47,35 -82,35 -35,0 -63,-12 -82,-34 -20,-23 -31,-55 -31,-97l0 -53c0,-43 10,-76 30,-100 20,-24 47,-36 82,-36 35,0 62,12 82,35 20,24 30,57 31,100l0 53zm-63 -52c0,-28 -4,-49 -12,-63 -8,-14 -21,-21 -38,-21 -16,0 -29,7 -37,20 -8,13 -12,33 -12,60l0 56c0,27 4,47 12,60 8,13 21,19 38,19 16,0 28,-6 36,-19 8,-12 12,-32 13,-58l0 -54zm-4228 705l-63 0 0 -259 -92 0 0 259 -63 0 0 -311 218 0 0 311zm285 -128c0,42 -10,74 -30,98 -19,23 -47,34 -82,34 -35,0 -62,-11 -82,-34 -20,-23 -30,-55 -30,-96l0 -53c0,-43 9,-77 29,-101 20,-24 48,-36 83,-36 34,0 62,12 82,36 20,23 30,56 30,99l0 53zm-63 -52c0,-28 -4,-49 -12,-63 -8,-13 -20,-20 -37,-20 -17,0 -29,6 -37,20 -8,13 -12,33 -13,60l0 55c0,27 4,47 13,60 8,13 20,20 37,20 17,0 29,-7 37,-19 8,-13 12,-32 12,-59l0 -54zm334 76c-1,36 -11,63 -30,81 -18,18 -44,27 -78,27 -35,0 -62,-11 -80,-34 -19,-24 -29,-57 -29,-100l0 -52c0,-43 10,-76 30,-99 19,-23 46,-35 80,-35 34,0 60,10 78,29 17,19 27,46 30,81l-63 0c-1,-22 -4,-37 -11,-45 -6,-8 -17,-13 -34,-13 -16,0 -28,6 -35,18 -7,12 -11,31 -11,58l0 59c0,31 3,52 10,64 7,11 19,17 35,17 17,0 28,-4 35,-12 6,-8 9,-23 10,-44l63 0zm250 -155l-77 0 0 259 -63 0 0 -259 -76 0 0 -52 216 0 0 52zm174 195l-86 0 -16 64 -67 0 97 -311 58 0 98 311 -67 0 -17 -64zm-72 -52l58 0 -29 -111 -29 111zm200 116l0 -311 97 0c32,0 57,7 74,21 17,15 25,36 25,64 0,16 -4,29 -11,41 -7,11 -16,19 -28,25 14,4 25,12 32,24 8,12 11,27 11,44 0,31 -8,53 -24,69 -17,15 -41,23 -73,23l-103 0zm63 -135l0 83 40 0c12,0 20,-4 26,-11 6,-7 9,-17 9,-29 0,-28 -10,-43 -31,-43l-44 0zm0 -46l33 0c25,0 37,-13 37,-38 0,-15 -3,-25 -9,-31 -5,-6 -15,-9 -27,-9l-34 0 0 78zm347 117l-86 0 -17 64 -66 0 97 -311 58 0 98 311 -67 0 -17 -64zm-72 -52l58 0 -29 -111 -29 111zm519 116l-62 0 0 -259 -93 0 0 259 -63 0 0 -311 218 0 0 311zm286 -128c0,42 -10,74 -30,98 -20,23 -47,34 -82,34 -35,0 -62,-11 -82,-34 -20,-23 -30,-55 -31,-96l0 -53c0,-43 10,-77 30,-101 20,-24 47,-36 82,-36 35,0 62,12 82,36 20,23 30,56 31,99l0 53zm-63 -52c0,-28 -4,-49 -12,-63 -8,-13 -21,-20 -38,-20 -16,0 -29,6 -37,20 -7,13 -12,33 -12,60l0 55c0,27 4,47 12,60 8,13 21,20 38,20 16,0 29,-7 36,-19 8,-13 12,-32 13,-59l0 -54zm287 70l0 110 -63 0 0 -311 106 0c31,0 55,9 74,28 18,19 27,44 27,75 0,30 -9,54 -27,72 -18,18 -43,26 -75,26l-42 0zm0 -52l43 0c12,0 21,-4 28,-12 6,-8 10,-19 10,-34 0,-15 -4,-28 -10,-37 -7,-9 -16,-14 -27,-14l-44 0 0 97zm366 -121c33,0 60,12 80,36 20,24 30,55 30,93 0,37 -10,67 -30,91 -20,24 -47,36 -80,36l0 40 -61 0 0 -40c-22,0 -42,-6 -58,-16 -17,-11 -30,-26 -39,-45 -9,-19 -14,-41 -14,-66 0,-38 10,-69 30,-93 21,-24 48,-36 81,-36l0 -41 61 0 0 41zm-64 53c-15,0 -27,7 -36,21 -9,13 -13,32 -13,55 0,22 4,40 13,53 9,13 21,19 37,19l2 0 0 -148 -3 0zm64 0l0 148 3 0c15,0 27,-6 35,-19 9,-13 13,-31 13,-53 0,-23 -4,-42 -13,-55 -8,-14 -20,-21 -36,-21l-2 0z"/>
 </g>
</svg>
