<?xml version="1.0" encoding="utf-8"?>
<!-- Generator: Adobe Illustrator 24.1.0, SVG Export Plug-In . SVG Version: 6.00 Build 0)  -->
<svg version="1.1" id="Слой_1" xmlns="http://www.w3.org/2000/svg" xmlns:xlink="http://www.w3.org/1999/xlink" x="0px" y="0px"
	 viewBox="0 0 24 24" style="enable-background:new 0 0 24 24;" xml:space="preserve">
<g>
	<path class="st15" d="M14.4,17.9c-0.4,0.2-0.9,0.1-1.2-0.2l-7-7C6,10.4,5.9,9.9,6.1,9.6l1.7-3.4L4.6,2.4L2.1,4.6
		C1.5,5.2,3,9.5,8.7,15.2C13.1,19.6,17.3,22,19,22c0.2,0,0.3,0,0.4-0.1l2.2-2.5l-3.7-3.2L14.4,17.9z"/>
	<path class="st16" d="M18.6,14.2c-0.3-0.3-0.7-0.3-1.1-0.1l-3.4,1.7l-6-6l1.7-3.4c0.2-0.4,0.1-0.8-0.1-1.1l-4.3-5
		C5.2,0.1,5,0,4.7,0C4.5,0,4.2,0.1,4,0.3l-3.3,3c-2.3,2.3,1.8,8.6,6.6,13.4C11.7,21,16.4,24,19,24c0.9,0,1.5-0.4,1.9-0.7l2.9-3.3
		c0.2-0.2,0.3-0.5,0.2-0.7c0-0.3-0.1-0.5-0.3-0.7L18.6,14.2z M21.6,19.4l-3.7-3.2l-3.4,1.7c-0.4,0.2-0.9,0.1-1.2-0.2l-7-7
		C6,10.4,5.9,9.9,6.1,9.6l1.7-3.4L4.6,2.4L2.1,4.6C1.5,5.2,3,9.5,8.7,15.2C13.1,19.6,17.3,22,19,22c0.2,0,0.3,0,0.4-0.1L21.6,19.4z"
		/>
	<path class="st16" d="M14.6,9.9C14.7,10,14.9,10,15,10h5c0.6,0,1-0.4,1-1c0-0.6-0.4-1-1-1h-2.6l6.3-6.3c0.4-0.4,0.4-1,0-1.4
		c-0.4-0.4-1-0.4-1.4,0L16,6.6V4c0-0.6-0.4-1-1-1c-0.6,0-1,0.4-1,1v5c0,0.1,0,0.3,0.1,0.4C14.2,9.6,14.4,9.8,14.6,9.9z"/>
</g>
</svg>
