<?xml version="1.0" encoding="utf-8"?>
<!-- Generator: Adobe Illustrator 18.1.1, SVG Export Plug-In . SVG Version: 6.00 Build 0)  -->
<svg version="1.1" id="Слой_1" xmlns="http://www.w3.org/2000/svg" xmlns:xlink="http://www.w3.org/1999/xlink" x="0px" y="0px"
	 viewBox="0 0 24 24" style="enable-background:new 0 0 24 24;" xml:space="preserve">
<style type="text/css">
	.st0{fill-rule:evenodd;clip-rule:evenodd;fill:#100F10;stroke:#201600;stroke-width:0.5669;stroke-miterlimit:22.9256;}
	.st1{fill:#E9ECEB;}
	.st2{fill:#E2E2E2;}
	.st3{fill-rule:evenodd;clip-rule:evenodd;fill:#FFFFFF;}
	.st4{fill:#FFFFFF;}
	.st5{fill:#FFFEFF;}
	.st6{fill:#ECECEC;}
	.st7{fill-rule:evenodd;clip-rule:evenodd;fill:#E61C21;}
	.st8{fill-rule:evenodd;clip-rule:evenodd;fill:#E2E2E2;}
	.st9{fill:#F3444E;}
	.st10{fill-rule:evenodd;clip-rule:evenodd;fill:#F3444E;}
	.st11{fill:#DC7D43;}
	.st12{fill:#201600;}
	.st13{fill:#D24A43;}
	.st14{fill-rule:evenodd;clip-rule:evenodd;fill:#FFFEFF;stroke:#FFFEFF}
	.st15{fill-rule:evenodd;clip-rule:evenodd;fill:#FFFEFF;}
	.st16{fill:#E62A13;}
	.st17{fill-rule:evenodd;clip-rule:evenodd;fill:#E62A13;}
	.st18{fill:#F1444C;}
	.st19{fill-rule:evenodd;clip-rule:evenodd;fill:#FF0000;}
	.st20{fill-rule:evenodd;clip-rule:evenodd;fill:#5C768B;}
	.st21{fill:none;stroke:#D24A43;stroke-width:1.4173;stroke-miterlimit:22.9256;}
	.st22{fill-rule:evenodd;clip-rule:evenodd;fill:#D24A43;}
	.st23{fill-rule:evenodd;clip-rule:evenodd;fill:#E8444C;}
	.st24{fill:none;stroke:#C6C6C6;stroke-width:1.0001;stroke-miterlimit:22.9256;}
	.st25{fill:#E61C21;}
	.st26{fill-rule:evenodd;clip-rule:evenodd;fill:#E41C22;}
	.st27{fill:none;stroke:#F1444C;stroke-miterlimit:10;}
	.st28{fill:none;stroke:#F1444C;stroke-width:2.1099;stroke-miterlimit:10;}
	.st29{fill:none;stroke:#F1444C;stroke-width:5.6693;stroke-miterlimit:10;}
	.st30{fill:none;stroke:#F1444C;stroke-width:2.8347;stroke-miterlimit:10;}
	.st31{fill:none;stroke:#F1444C;stroke-width:1.9345;stroke-miterlimit:10;}
	.st32{fill:none;stroke:#F1444C;stroke-width:1.3761;stroke-miterlimit:10;}
	.st33{fill:none;stroke:#F1444C;stroke-width:2.6283;stroke-miterlimit:10;}
	.st34{fill:none;stroke:#F1444C;stroke-width:3.536;stroke-miterlimit:10;}
	.st35{fill:none;stroke:#F1444C;stroke-width:3.3797;stroke-miterlimit:10;}
	.st36{fill:none;stroke:#F1444C;stroke-width:2.9335;stroke-miterlimit:10;}
	.st37{fill:none;stroke:#F1444C;stroke-width:1.275;stroke-miterlimit:10;}
	.st38{fill:none;stroke:#F1444C;stroke-width:1.0997;stroke-miterlimit:10;}
	.st39{fill:none;stroke:#F1444C;stroke-width:1.9238;stroke-miterlimit:10;}
</style>
<polygon class="st0" points="-1341,1771.8 -1341,-448 799.7,-448 799.7,1771.8 -1341,1771.8 "/>
<g>
	<path class="st14" d="M20,10h-5c-0.6,0-1-0.4-1-1V4c0-0.6,0.4-1,1-1c0.6,0,1,0.4,1,1v4h4c0.6,0,1,0.4,1,1C21,9.6,20.5,10,20,10
		L20,10z"/>
	<path class="st14" d="M4.6,2.4L2.1,4.6C1.5,5.2,3,9.5,8.7,15.2C13.1,19.6,17.3,22,19,22c0.2,0,0.3,0,0.4-0.1l2.2-2.5l-3.7-3.2
		l-3.4,1.7c-0.4,0.2-0.9,0.1-1.2-0.2l-7-7C6,10.4,5.9,9.9,6.1,9.6l1.7-3.4L4.6,2.4L4.6,2.4z M19,24c-2.6,0-7.3-3-11.7-7.4
		C2.5,11.8-1.7,5.5,0.7,3.2l3.3-3C4.2,0.1,4.5,0,4.7,0C5,0,5.2,0.1,5.4,0.3l4.3,5c0.3,0.3,0.3,0.7,0.1,1.1L8.2,9.8l6,6l3.4-1.7
		c0.4-0.2,0.8-0.1,1.1,0.1l5,4.3c0.2,0.2,0.3,0.4,0.3,0.7c0,0.3-0.1,0.5-0.2,0.7l-2.9,3.3C20.5,23.6,19.9,24,19,24L19,24z"/>
	<path class="st14" d="M15,10c-0.3,0-0.5-0.1-0.7-0.3c-0.4-0.4-0.4-1,0-1.4l8-8c0.4-0.4,1-0.4,1.4,0c0.4,0.4,0.4,1,0,1.4l-8,8
		C15.5,9.9,15.2,10,15,10L15,10z"/>
</g>
<rect x="-35" y="-201.8" class="st31" width="89" height="249.7"/>
</svg>
